<svg xmlns="http://www.w3.org/2000/svg" width="472" height="364" fill="none" viewBox="0 0 472 364">
    <g clip-path="url(#clip0)">
        <g clip-path="url(#clip1)">
            <rect width="474" height="364" fill="#FFF1E0" rx="8"/>
            <path stroke="#E535AB" stroke-width="2" d="M196.563-204.35c-97.113-30.73-151.56 23.224-171.682 84.611C4.759-58.352 31.098 25.367 15.72 84.206c-15.378 58.84-73.846 87.717-73.846 87.717" opacity=".06"/>
            <path stroke="#E535AB" stroke-width="2" d="M209.36-87.192C112.247-117.92 57.8-63.968 37.678-2.58c-20.122 61.387 6.217 145.105-9.16 203.945-15.378 58.839-73.846 87.716-73.846 87.716" opacity=".06"/>
            <path stroke="#E535AB" stroke-width="2" d="M183.413-102.658C84.228-88.751 45.674-13.65 41.357 53.295 37.039 120.24 82 187.745 81.559 250.182c-.442 62.436-48.806 115.606-48.806 115.606M710.594-156.869c-148.856-47.102-232.313 35.598-263.156 129.693-30.843 94.095 9.53 222.42-14.041 312.609-23.571 90.19-113.191 134.452-113.191 134.452" opacity=".06"/>
            <path stroke="#E535AB" stroke-width="2" d="M630.563 41.307c-97.113-30.73-151.56 23.224-171.682 84.611-20.122 61.387 6.217 145.106-9.161 203.945-15.377 58.84-73.845 87.717-73.845 87.717" opacity=".06"/>
        </g>
        <path fill="#9B99A6" d="M195.48 80.104c-4.402 1.426-8.617-1.04-9.557-5.626-.49-2.428 1.618-6.243 4.176-7.592.527-.27 1.204-.308 1.543-.886h1.957c.188.347.564.347.865.424 5.569 1.194 6.134 7.63 3.913 11.021-.15.193-.263.386-.376.617-.376-.347-.715-.732-1.129-1.08-.451-.385-.903-.654-1.505-.346-.677.347-.715 1.002-.564 1.619.15.616.451 1.233.677 1.85z"/>
        <path fill="#787880" d="M230.322 100.567c2.408 0 4.666-1.002 7.036-1.272 13.433-1.502 25.775 1.234 36.462 10.058 4.214 3.507 7.563 7.823 10.347 12.602.377.655.715 1.349 1.28 1.888.639 1.387 1.279 2.775 1.881 4.162 2.86 6.782 4.741 13.796 5.569 21.156.151 3.392.226 6.783.038 10.213-.188 3.738-1.392 7.052-3.161 10.173-.941 1.696-2.747 2.621-4.591 3.122-1.505.423-2.521-.54-3.348-1.658-1.543-2.119-1.995-4.624-2.032-7.206-.038-5.78-.452-11.522-1.355-17.226-.226-1.464-.602-2.928-.941-4.354-1.919-7.399-6.923-11.176-14.073-12.524-6.509-1.234-12.868-.463-19.039 1.618-10.122 3.468-19.718 8.016-27.958 15.106-5.268 4.548-8.203 10.174-7.338 17.457.414 3.469 1.28 6.783 2.71 9.943 3.424 7.553 8.315 13.873 15.088 18.613 1.656 1.156 3.312 2.35 4.064 4.431.64 1.812.339 3.353-.94 4.779-1.656 1.888-3.763 2.929-6.209 2.929-5.945 0-11.702-.887-16.97-3.97 0-.385.188-.616.451-.847 2.183-2.043 2.521-4.586 1.806-7.361-1.429-5.665-4.477-10.405-8.24-14.644-2.672-3.044-6.058-5.241-9.558-7.206-2.634-1.464-5.192-1.002-7.337 1.118-.602.578-.978 1.425-1.919 1.58-.753-8.941-1.28-17.92-.038-26.86.903-6.513 4.026-12.101 7.864-17.303 3.124-4.239 6.886-7.823 10.837-11.253.828-.732 1.844-1.348 2.183-2.543.376.039.602-.231.865-.424 4.139-3.738 8.843-6.551 13.847-8.94 4.177-1.966 8.467-3.661 12.719-5.357z"/>
        <path fill="#9B99A6" d="M182.121 173.285c.941-.154 1.317-1.002 1.919-1.58 2.145-2.119 4.704-2.582 7.338-1.117 3.499 1.965 6.886 4.162 9.557 7.206 3.763 4.277 6.811 9.017 8.241 14.644.715 2.774.338 5.318-1.806 7.36-.226.231-.452.501-.452.848-1.204.308-1.957 1.272-2.822 2.004-2.559 2.119-5.381 3.468-8.655 3.661-2.37.154-4.628-.501-6.773-1.465-1.881-.847-3.65-1.926-5.155-3.391l.301-.308c1.995-1.811 2.183-3.507.602-5.28-1.768-1.965-3.123-1.926-5.155.116-.075.077-.15.116-.225.154-2.145-3.006-2.747-6.32-1.919-9.942.94-3.931 2.22-7.746 4.553-11.06.338-.54.489-1.156.451-1.85zM175.349 206.542c.827 2.929.639 5.742-.866 8.439-1.881 3.43-5.456 5.473-8.654 4.933-4.139-.694-6.924-3.507-7.677-7.707-1.053-6.089 3.5-11.523 9.144-10.906 1.957.193 3.612 1.233 5.456 1.773 1.091.963 1.994 2.081 2.597 3.468zM230.323 100.567c-4.289 1.696-8.541 3.43-12.68 5.395-4.967 2.389-9.708 5.203-13.847 8.941-.264.231-.49.462-.866.424-.64-2.467.038-4.779.903-7.053.715-1.888 1.919-3.468 3.424-4.817.527-.462 1.129-.847 1.355-1.58 1.957-1.194 3.876-2.504 6.058-3.275 2.371-.578 4.704-1.118 7.149-.887 2.258.232 4.553.463 6.661 1.35.79.346 1.542.654 1.843 1.502zM292.9 149.161c-.791-7.322-2.71-14.374-5.569-21.156-.602-1.387-1.242-2.775-1.882-4.162 2.521-.424 4.628.732 6.698 1.965 1.204.694 2.295 1.619 3.462 2.428 1.279 1.619 2.182 3.391 2.822 5.357.451 3.622.038 7.167-1.43 10.52-.828 2.12-1.957 4.008-4.101 5.048z"/>
        <path fill="#F69829" d="M214.708 98.602c-2.183.77-4.102 2.081-6.058 3.275-3.349-4.932-6.284-10.135-9.144-15.376-1.204-2.235-2.634-4.316-4.026-6.397-.226-.616-.489-1.233-.64-1.888-.15-.617-.113-1.233.564-1.618.603-.347 1.092-.04 1.506.346.376.347.752.694 1.128 1.08 5.645 6.011 10.499 12.678 15.654 19.075.376.462.828.886 1.016 1.503z"/>
        <path fill="#9B99A6" d="M302.982 124.498c-.564-3.198 1.656-6.551 4.704-7.091 3.311-.616 6.585 1.657 7.187 4.895.489 2.813-.452 5.549-2.521 6.82-2.371 1.465-4.704 1.311-6.961-.346.564-.733 1.317-1.349 1.655-2.235.489-1.311.151-2.12-1.204-2.467-1.053-.27-1.956.039-2.86.424z"/>
        <path fill="#F69729" d="M175.349 206.542c-.602-1.387-1.505-2.505-2.634-3.468.903-1.657 2.37-2.813 3.65-4.124.903-.886 1.919-1.657 2.634-2.774.075-.039.15-.116.226-.154 2.031-2.043 3.386-2.081 5.155-.116 1.58 1.773 1.392 3.507-.602 5.279-.113.077-.189.193-.302.309-2.332 1.194-4.477 2.697-6.622 4.2-.527.347-1.016.578-1.505.848zM302.984 124.498c.903-.385 1.844-.693 2.822-.424 1.355.347 1.693 1.118 1.204 2.467-.338.924-1.053 1.541-1.655 2.235-2.183 1.772-4.328 3.584-6.886 4.817-.64-1.966-1.543-3.777-2.823-5.357 2.296-1.58 5.043-2.196 7.338-3.738z"/>
        <path fill="#F79727" d="M147.762 255h-4.545v-22.125h7.23l7.41 20.445-.78.195v-20.64h4.53V255h-7.275l-7.41-20.385.84-.195V255zm25.48.345c-1.72 0-3.235-.355-4.545-1.065s-2.335-1.685-3.075-2.925c-.73-1.25-1.095-2.69-1.095-4.32 0-1.62.365-3.05 1.095-4.29.74-1.25 1.765-2.22 3.075-2.91 1.31-.7 2.825-1.05 4.545-1.05 1.72 0 3.235.35 4.545 1.05 1.31.69 2.33 1.66 3.06 2.91.74 1.24 1.11 2.67 1.11 4.29 0 1.63-.37 3.07-1.11 4.32-.73 1.24-1.75 2.215-3.06 2.925s-2.825 1.065-4.545 1.065zm0-3.69c.81 0 1.515-.19 2.115-.57.6-.38 1.065-.915 1.395-1.605.33-.7.495-1.515.495-2.445 0-.93-.165-1.735-.495-2.415-.33-.69-.795-1.22-1.395-1.59-.6-.37-1.305-.555-2.115-.555-.8 0-1.505.185-2.115.555-.6.37-1.065.9-1.395 1.59-.33.68-.495 1.485-.495 2.415 0 .93.165 1.745.495 2.445.33.69.795 1.225 1.395 1.605.61.38 1.315.57 2.115.57zm18.28 3.705c-1.33 0-2.555-.315-3.675-.945-1.12-.64-2.02-1.585-2.7-2.835-.68-1.25-1.02-2.79-1.02-4.62 0-1.75.345-3.235 1.035-4.455.7-1.22 1.61-2.145 2.73-2.775 1.13-.64 2.34-.96 3.63-.96 1.26 0 2.41.32 3.45.96 1.05.64 1.89 1.515 2.52 2.625.63 1.1.945 2.37.945 3.81V246.45l-2.01.03v-.09-.105c0-.75-.18-1.395-.54-1.935-.36-.54-.825-.955-1.395-1.245-.57-.3-1.165-.45-1.785-.45-1.03 0-1.92.345-2.67 1.035-.75.68-1.125 1.77-1.125 3.27s.375 2.605 1.125 3.315c.76.7 1.65 1.05 2.67 1.05.64 0 1.245-.15 1.815-.45.57-.31 1.03-.745 1.38-1.305.35-.56.525-1.22.525-1.98l2.01.105c0 1.43-.31 2.725-.93 3.885-.61 1.15-1.44 2.07-2.49 2.76-1.04.68-2.205 1.02-3.495 1.02zm4.905-.36v-23.445h4.665V255h-4.665zm9.995-6.57v-3.075h10.56l-.45.78v-.225-.225c0-.57-.135-1.115-.405-1.635-.27-.53-.69-.96-1.26-1.29-.56-.34-1.28-.51-2.16-.51-.88 0-1.64.19-2.28.57-.63.37-1.115.905-1.455 1.605-.33.7-.495 1.545-.495 2.535 0 1.02.16 1.895.48 2.625.33.72.815 1.275 1.455 1.665.65.39 1.455.585 2.415.585.62 0 1.155-.055 1.605-.165.45-.12.815-.27 1.095-.45.29-.18.51-.38.66-.6.15-.22.24-.435.27-.645h4.59c-.06.67-.29 1.33-.69 1.98-.4.64-.955 1.22-1.665 1.74-.71.51-1.575.915-2.595 1.215-1.01.3-2.165.45-3.465.45-1.76 0-3.295-.35-4.605-1.05-1.31-.71-2.325-1.685-3.045-2.925-.72-1.25-1.08-2.69-1.08-4.32 0-1.65.365-3.095 1.095-4.335.74-1.25 1.765-2.22 3.075-2.91 1.32-.7 2.845-1.05 4.575-1.05 1.77 0 3.3.355 4.59 1.065 1.29.7 2.285 1.685 2.985 2.955.7 1.26 1.05 2.73 1.05 4.41 0 .25-.005.49-.015.72-.01.23-.025.4-.045.51h-14.79zm20.321 7.02c-.69 0-1.275-.24-1.755-.72s-.72-1.065-.72-1.755c0-.68.24-1.26.72-1.74s1.065-.72 1.755-.72c.68 0 1.26.24 1.74.72s.72 1.06.72 1.74c0 .69-.24 1.275-.72 1.755s-1.06.72-1.74.72zm3.856 6.405c-.29 0-.57-.01-.84-.03-.28-.02-.51-.035-.69-.045v-3.435c.18.03.41.055.69.075.27.03.55.045.84.045.49 0 .885-.07 1.185-.21.31-.13.54-.305.69-.525.16-.21.265-.445.315-.705.06-.26.09-.51.09-.75V239.07h4.635v17.31c0 .66-.08 1.31-.24 1.95-.16.65-.48 1.24-.96 1.77-.47.53-1.165.955-2.085 1.275-.91.32-2.12.48-3.63.48zm4.65-25.38c-.72 0-1.35-.19-1.89-.57-.53-.38-.795-.915-.795-1.605 0-.7.265-1.24.795-1.62.54-.38 1.17-.57 1.89-.57s1.345.19 1.875.57c.54.38.81.92.81 1.62 0 .69-.27 1.225-.81 1.605-.53.38-1.155.57-1.875.57zm12.376 18.885c-.95 0-1.865-.11-2.745-.33-.88-.22-1.67-.545-2.37-.975-.69-.43-1.24-.965-1.65-1.605-.4-.65-.6-1.405-.6-2.265v-.135-.135h4.62v.21c0 .58.255 1.005.765 1.275.52.27 1.22.405 2.1.405.46 0 .9-.045 1.32-.135.43-.1.78-.255 1.05-.465.28-.22.42-.495.42-.825 0-.53-.295-.905-.885-1.125-.58-.22-1.515-.44-2.805-.66-.73-.12-1.47-.29-2.22-.51-.75-.22-1.44-.51-2.07-.87-.63-.37-1.135-.835-1.515-1.395-.38-.57-.57-1.26-.57-2.07 0-1.08.325-1.99.975-2.73.66-.74 1.535-1.3 2.625-1.68 1.09-.38 2.29-.57 3.6-.57 1.25 0 2.415.21 3.495.63 1.08.41 1.955 1.005 2.625 1.785.67.77 1.005 1.7 1.005 2.79v.21h-4.575v-.105-.075c0-.4-.13-.725-.39-.975-.25-.25-.57-.435-.96-.555-.39-.13-.795-.195-1.215-.195-.38 0-.775.045-1.185.135-.4.08-.74.22-1.02.42-.28.19-.42.46-.42.81 0 .34.15.62.45.84.3.21.72.385 1.26.525.54.13 1.165.255 1.875.375.67.11 1.375.265 2.115.465.75.19 1.45.465 2.1.825.66.35 1.19.815 1.59 1.395.41.57.615 1.295.615 2.175 0 .91-.21 1.69-.63 2.34-.42.65-.99 1.18-1.71 1.59-.71.4-1.505.695-2.385.885-.87.2-1.765.3-2.685.3zm35.158-22.485V255h-4.665v-10.62l2.1 1.41h-12.21l2.1-1.35V255h-4.665v-22.125h4.665v10.695l-2.1-1.395h12.21l-2.1 1.395v-10.695h4.665zm9.051 22.455c-1.16 0-2.195-.185-3.105-.555-.9-.37-1.605-.905-2.115-1.605-.51-.7-.765-1.55-.765-2.55 0-1.13.31-2.05.93-2.76.62-.71 1.44-1.25 2.46-1.62 1.03-.38 2.145-.63 3.345-.75 1.75-.17 2.955-.325 3.615-.465.67-.14 1.005-.385 1.005-.735v-.03c0-.59-.285-1.055-.855-1.395-.56-.34-1.345-.51-2.355-.51-1.07 0-1.89.195-2.46.585-.56.38-.84.965-.84 1.755h-4.575c0-1.28.345-2.36 1.035-3.24.7-.88 1.645-1.545 2.835-1.995 1.19-.46 2.535-.69 4.035-.69 1.4 0 2.695.215 3.885.645 1.19.42 2.145 1.055 2.865 1.905.73.85 1.095 1.93 1.095 3.24v6.885c0 .41.01.805.03 1.185.03.37.09.71.18 1.02.1.35.225.64.375.87.15.23.275.39.375.48h-4.575c-.07-.07-.18-.215-.33-.435-.14-.22-.26-.475-.36-.765-.12-.35-.21-.7-.27-1.05-.05-.36-.075-.78-.075-1.26l.96.66c-.28.66-.735 1.23-1.365 1.71-.62.47-1.36.835-2.22 1.095-.85.25-1.77.375-2.76.375zm1.245-3.48c.73 0 1.41-.13 2.04-.39.64-.27 1.16-.69 1.56-1.26.4-.57.6-1.315.6-2.235v-1.605l1.155 1.125c-.66.24-1.425.44-2.295.6-.86.15-1.72.27-2.58.36-1.02.1-1.785.275-2.295.525-.5.24-.75.65-.75 1.23 0 .55.215.965.645 1.245.43.27 1.07.405 1.92.405zm12.193 9.705V239.07h4.665v22.485h-4.665zm9.585-6.195c-1.26 0-2.415-.335-3.465-1.005-1.05-.68-1.89-1.59-2.52-2.73-.63-1.15-.945-2.44-.945-3.87v-.105-.135l2.01-.045v.18c0 .74.18 1.39.54 1.95.36.55.825.975 1.395 1.275.57.3 1.165.45 1.785.45 1.02 0 1.905-.35 2.655-1.05.76-.71 1.14-1.815 1.14-3.315s-.375-2.59-1.125-3.27c-.75-.69-1.64-1.035-2.67-1.035-.62 0-1.215.15-1.785.45-.57.29-1.035.705-1.395 1.245-.36.54-.54 1.185-.54 1.935l-2.01-.12c0-1.44.315-2.71.945-3.81.63-1.11 1.47-1.985 2.52-2.625 1.05-.64 2.205-.96 3.465-.96 1.29 0 2.495.32 3.615.96 1.12.63 2.025 1.555 2.715 2.775.7 1.22 1.05 2.705 1.05 4.455 0 1.83-.34 3.37-1.02 4.62-.68 1.25-1.58 2.195-2.7 2.835-1.12.63-2.34.945-3.66.945zm10.098-.36v-15.93h4.605V255h-4.605zm2.295-18.525c-.72 0-1.35-.19-1.89-.57-.53-.38-.795-.915-.795-1.605 0-.7.265-1.24.795-1.62.54-.38 1.17-.57 1.89-.57.73 0 1.36.19 1.89.57.54.38.81.92.81 1.62 0 .7-.27 1.24-.81 1.62-.53.37-1.16.555-1.89.555zm-146.145 36H173.8l1.86-2.22V291h-4.635v-20.745l1.92 2.22h-7.35v-3.6h15.51v3.6zm2.495 11.955v-3.075h10.56l-.45.78v-.225-.225c0-.57-.135-1.115-.405-1.635-.27-.53-.69-.96-1.26-1.29-.56-.34-1.28-.51-2.16-.51-.88 0-1.64.19-2.28.57-.63.37-1.115.905-1.455 1.605-.33.7-.495 1.545-.495 2.535 0 1.02.16 1.895.48 2.625.33.72.815 1.275 1.455 1.665.65.39 1.455.585 2.415.585.62 0 1.155-.055 1.605-.165.45-.12.815-.27 1.095-.45.29-.18.51-.38.66-.6.15-.22.24-.435.27-.645h4.59c-.06.67-.29 1.33-.69 1.98-.4.64-.955 1.22-1.665 1.74-.71.51-1.575.915-2.595 1.215-1.01.3-2.165.45-3.465.45-1.76 0-3.295-.35-4.605-1.05-1.31-.71-2.325-1.685-3.045-2.925-.72-1.25-1.08-2.69-1.08-4.32 0-1.65.365-3.095 1.095-4.335.74-1.25 1.765-2.22 3.075-2.91 1.32-.7 2.845-1.05 4.575-1.05 1.77 0 3.3.355 4.59 1.065 1.29.7 2.285 1.685 2.985 2.955.7 1.26 1.05 2.73 1.05 4.41 0 .25-.005.49-.015.72-.01.23-.025.4-.045.51H183.6zm27.701 6.57v-6.165-1.53-1.095c0-.41-.025-.815-.075-1.215-.04-.4-.14-.77-.3-1.11-.15-.35-.385-.625-.705-.825-.32-.21-.755-.315-1.305-.315-.51 0-.95.11-1.32.33-.37.21-.675.505-.915.885-.23.37-.4.8-.51 1.29-.11.48-.165.985-.165 1.515l-1.275-1.05c0-1.35.245-2.545.735-3.585.49-1.05 1.185-1.87 2.085-2.46.91-.6 1.985-.9 3.225-.9 1.33 0 2.365.285 3.105.855.75.56 1.275 1.31 1.575 2.25.31.93.465 1.96.465 3.09V291h-4.62zm-9.945 0v-15.93h4.65V291h-4.65zm19.845 0v-6.15-1.575-1.095c0-.44-.025-.86-.075-1.26-.05-.41-.155-.78-.315-1.11-.16-.33-.4-.59-.72-.78-.32-.19-.755-.285-1.305-.285-.51 0-.95.11-1.32.33-.36.21-.655.5-.885.87-.23.37-.4.79-.51 1.26-.1.47-.15.96-.15 1.47l-1.275-1.035c0-1.33.24-2.51.72-3.54.49-1.03 1.18-1.84 2.07-2.43.9-.6 1.975-.9 3.225-.9 1.3 0 2.325.275 3.075.825.76.55 1.3 1.285 1.62 2.205.33.91.495 1.93.495 3.06V291h-4.65zm8.133 6.555V275.07h4.665v22.485h-4.665zm9.585-6.195c-1.26 0-2.415-.335-3.465-1.005-1.05-.68-1.89-1.59-2.52-2.73-.63-1.15-.945-2.44-.945-3.87v-.105-.135l2.01-.045v.18c0 .74.18 1.39.54 1.95.36.55.825.975 1.395 1.275.57.3 1.165.45 1.785.45 1.02 0 1.905-.35 2.655-1.05.76-.71 1.14-1.815 1.14-3.315s-.375-2.59-1.125-3.27c-.75-.69-1.64-1.035-2.67-1.035-.62 0-1.215.15-1.785.45-.57.29-1.035.705-1.395 1.245-.36.54-.54 1.185-.54 1.935l-2.01-.12c0-1.44.315-2.71.945-3.81.63-1.11 1.47-1.985 2.52-2.625 1.05-.64 2.205-.96 3.465-.96 1.29 0 2.495.32 3.615.96 1.12.63 2.025 1.555 2.715 2.775.7 1.22 1.05 2.705 1.05 4.455 0 1.83-.34 3.37-1.02 4.62-.68 1.25-1.58 2.195-2.7 2.835-1.12.63-2.34.945-3.66.945zm15.094-23.805V291h-4.59v-23.445h4.59zm9.11 23.775c-1.16 0-2.195-.185-3.105-.555-.9-.37-1.605-.905-2.115-1.605-.51-.7-.765-1.55-.765-2.55 0-1.13.31-2.05.93-2.76.62-.71 1.44-1.25 2.46-1.62 1.03-.38 2.145-.63 3.345-.75 1.75-.17 2.955-.325 3.615-.465.67-.14 1.005-.385 1.005-.735v-.03c0-.59-.285-1.055-.855-1.395-.56-.34-1.345-.51-2.355-.51-1.07 0-1.89.195-2.46.585-.56.38-.84.965-.84 1.755h-4.575c0-1.28.345-2.36 1.035-3.24.7-.88 1.645-1.545 2.835-1.995 1.19-.46 2.535-.69 4.035-.69 1.4 0 2.695.215 3.885.645 1.19.42 2.145 1.055 2.865 1.905.73.85 1.095 1.93 1.095 3.24v6.885c0 .41.01.805.03 1.185.03.37.09.71.18 1.02.1.35.225.64.375.87.15.23.275.39.375.48h-4.575c-.07-.07-.18-.215-.33-.435-.14-.22-.26-.475-.36-.765-.12-.35-.21-.7-.27-1.05-.05-.36-.075-.78-.075-1.26l.96.66c-.28.66-.735 1.23-1.365 1.71-.62.47-1.36.835-2.22 1.095-.85.25-1.77.375-2.76.375zm1.245-3.48c.73 0 1.41-.13 2.04-.39.64-.27 1.16-.69 1.56-1.26.4-.57.6-1.315.6-2.235v-1.605l1.155 1.125c-.66.24-1.425.44-2.295.6-.86.15-1.72.27-2.58.36-1.02.1-1.785.275-2.295.525-.5.24-.75.65-.75 1.23 0 .55.215.965.645 1.245.43.27 1.07.405 1.92.405zm19.671 3.48c-.61 0-1.24-.055-1.89-.165-.64-.1-1.24-.305-1.8-.615-.55-.32-.995-.785-1.335-1.395-.34-.61-.51-1.415-.51-2.415v-.675-7.395h-3.675v-3.6h1.035c.6 0 1.075-.025 1.425-.075.36-.05.625-.175.795-.375.18-.21.295-.535.345-.975.05-.44.075-1.045.075-1.815v-2.01h4.665v5.25h4.635v3.6h-4.635V285.42c0 .69.08 1.25.24 1.68.17.43.585.645 1.245.645.33 0 .64-.03.93-.09.3-.06.525-.12.675-.18v3.495c-.21.09-.505.17-.885.24-.38.08-.825.12-1.335.12zm7.989-6.9v-3.075h10.56l-.45.78v-.225-.225c0-.57-.135-1.115-.405-1.635-.27-.53-.69-.96-1.26-1.29-.56-.34-1.28-.51-2.16-.51-.88 0-1.64.19-2.28.57-.63.37-1.115.905-1.455 1.605-.33.7-.495 1.545-.495 2.535 0 1.02.16 1.895.48 2.625.33.72.815 1.275 1.455 1.665.65.39 1.455.585 2.415.585.62 0 1.155-.055 1.605-.165.45-.12.815-.27 1.095-.45.29-.18.51-.38.66-.6.15-.22.24-.435.27-.645h4.59c-.06.67-.29 1.33-.69 1.98-.4.64-.955 1.22-1.665 1.74-.71.51-1.575.915-2.595 1.215-1.01.3-2.165.45-3.465.45-1.76 0-3.295-.35-4.605-1.05-1.31-.71-2.325-1.685-3.045-2.925-.72-1.25-1.08-2.69-1.08-4.32 0-1.65.365-3.095 1.095-4.335.74-1.25 1.765-2.22 3.075-2.91 1.32-.7 2.845-1.05 4.575-1.05 1.77 0 3.3.355 4.59 1.065 1.29.7 2.285 1.685 2.985 2.955.7 1.26 1.05 2.73 1.05 4.41 0 .25-.005.49-.015.72-.01.23-.025.4-.045.51h-14.79z"/>
    </g>
    <defs>
        <clipPath id="clip0">
            <path fill="#fff" d="M0 8c0-4.418 3.582-8 8-8h456c4.418 0 8 3.582 8 8v348c0 4.418-3.582 8-8 8H8c-4.418 0-8-3.582-8-8V8z"/>
        </clipPath>
        <clipPath id="clip1">
            <path fill="#fff" d="M0 0H474V364H0z"/>
        </clipPath>
    </defs>
</svg>
